PathFileType	4	(X/Y/Z)	18_1_53_p1_0-289.trc
DataRate	CameraRate	NumFrames	NumMarkers	Units	OrigDataRate	OrigDataStartFrame	OrigNumFrames
60.0	60.0	5	27	m	60.0	217	290
Frame#	Time	RHip			RKnee			RAnkle			RBigToe			RSmallToe			RHeel			LHip			LKnee			LAnkle			LBigToe			LSmallToe			LHeel			Neck			Head			Nose			RShoulder			RElbow			RWrist			RThumb			RIndex			RPinky			LShoulder			LElbow			LWrist			LThumb			LIndex			LPinky			
		X1	Y1	Z1	X2	Y2	Z2	X3	Y3	Z3	X4	Y4	Z4	X5	Y5	Z5	X6	Y6	Z6	X7	Y7	Z7	X8	Y8	Z8	X9	Y9	Z9	X10	Y10	Z10	X11	Y11	Z11	X12	Y12	Z12	X13	Y13	Z13	X14	Y14	Z14	X15	Y15	Z15	X16	Y16	Z16	X17	Y17	Z17	X18	Y18	Z18	X19	Y19	Z19	X20	Y20	Z20	X21	Y21	Z21	X22	Y22	Z22	X23	Y23	Z23	X24	Y24	Z24	X25	Y25	Z25	X26	Y26	Z26	X27	Y27	Z27	
217	3.6166666666666667	0.28119519242288765	0.41814574056115944	1.1497195885650877	0.2643050157752892	0.5028682506118539	1.5818077313606136	0.2416988048730731	0.6152325637699559	2.018216639111841	0.212320001796405	0.3857931569362146	2.0315723359138724	0.2632027589197425	0.4469569037030264	2.053880173228859	0.22533870026898087	0.6892546775886595	2.0701150024007227	0.09589730653354388	0.3594498184566584	1.1256128948561197	0.09652131160828753	0.43308741403717566	1.5513952611868476	0.07542628684007216	0.6045882001782888	2.0232035692305024	0.06143491182539644	0.396570056762451	2.043244838583006	0.014616125423261765	0.4504298964053366	2.045300081657119	0.09193192652348595	0.6623199952106862	2.0718913474730782	0.2903663328834705	0.30174960752825997	0.6027280091281925	0.37630777309640184	0.2409198765020671	0.38771714150058684	0.29567466269058124	0.22449918593467166	0.502822858415545	0.3767948782193698	0.38795766218261296	0.7127151858862456	0.32317828346354965	0.1967947969284811	0.8931995925243282	0.3681802197005355	0.2309040690377903	0.7201620223193769	0.38676519583898045	0.29248898664587564	0.6369946963844105	0.4258917527610852	0.2876687276712568	0.6077008021051401	0.4164864089604656	0.28190165916174276	0.6380050376493378	0.12604322207409457	0.32559522779971306	0.6390510536423973	0.19081031779506247	0.1433629811004337	0.8414047988980836	0.31239309773698787	0.21479051363164897	0.7130124570025254	0.3557055011817445	0.22342513150279594	0.6510919360210579	0.3710649115138022	0.2238372872509119	0.6061375302588679	0.3908593437978651	0.2186059567590858	0.6399113363898447
218	3.6333333333333333	0.285207235995476	0.40352031830908724	1.1468851891264134	0.25912876229873144	0.5014949358717619	1.5861589672438634	0.24622317507244668	0.598166296335685	2.0103335875484127	0.21224258388964373	0.38597038267251244	2.0314685567035666	0.2673435324253591	0.4312826855355817	2.0459854595094122	0.22532665452222175	0.6891920917903522	2.070044549365877	0.09531579832761501	0.3602715547574489	1.1297423298066782	0.09662329223871578	0.4331232933950995	1.5514955950605396	0.07538156231753143	0.6043892987044001	2.0229316432063356	0.06196579092914797	0.3918101594648681	2.0333957557314224	0.014598849739001142	0.4504898628643017	2.0451962998889806	0.0919036617273558	0.6623994387614899	2.0720504482127104	0.28679809489095415	0.3153173152928681	0.6026408420299199	0.3690704526447131	0.24103257986566734	0.3846803170117346	0.2920477700856225	0.21495271234659985	0.49933144138649965	0.37564437304594256	0.3845004246538537	0.7013757969435119	0.3259521791419182	0.19843021712106873	0.8893240141442355	0.38161824294331936	0.2626733239560328	0.7223304049947723	0.3898206313458759	0.2909638487012389	0.6281113495568886	0.42420889780275084	0.2824713662139516	0.6038780217857928	0.41860896866942005	0.28698293453183144	0.6333710168963542	0.12595298219922477	0.32557857260778955	0.6390914454656241	0.1743407825986256	0.16598616432604588	0.8446894358793757	0.30533887536886556	0.24102975652346414	0.7143047405997727	0.3598706144543076	0.23410601517533905	0.6586061981537219	0.38201221584395945	0.2435584324461618	0.6052927544881316	0.4044875232516035	0.24252774965906584	0.6392918692764877
219	3.65	0.28519069044940254	0.4036647910308056	1.1467952519989302	0.2599712722958586	0.5005342748004158	1.581098679314698	0.24173065769399288	0.6152874645757289	2.0181789943074544	0.21297199611734408	0.3883241774029413	2.0362742911460048	0.2628433898657013	0.4469166210794209	2.053460177473196	0.2257791610503505	0.6869901271742336	2.073684156898455	0.0953288674954762	0.3603478337631924	1.1296119948121908	0.10139559821991587	0.41869360346302464	1.5467786319296586	0.07465342012221932	0.6016442138146986	2.0177754175942195	0.056402088346681555	0.4076750984039731	2.044949771500938	0.009478606048527329	0.4651515901491075	2.052458478369054	0.09183949914340618	0.6627715767122999	2.0721238905204236	0.28672613805421543	0.3152368396213698	0.6026552872628705	0.36131458833290814	0.22938802645616269	0.38548173204157266	0.29212574237626154	0.21457310785903347	0.4961922538892993	0.3713612159592453	0.38400518278179036	0.7050008493986978	0.33471267522939724	0.21256494305815804	0.8871107315457235	0.3714329482371336	0.23993969822449573	0.7252952718166524	0.3936467675889315	0.27891157171078984	0.6308881473271016	0.42294065878971865	0.28049227105861646	0.606502653382547	0.4231591376206866	0.28861123397545435	0.6321332118008658	0.12557669323168924	0.3259912555650502	0.6429547555976006	0.17835984576377634	0.15373876545212853	0.8433686460462722	0.3095044982122685	0.23013719770738927	0.7175153271634024	0.3645736378517973	0.2133040456701999	0.6580365578866103	0.37942704478112854	0.2345359127075526	0.6081193685057651	0.40545235869610263	0.24150580339141267	0.6387958957551763
220	3.6666666666666665	0.28530933682571724	0.40343334918417956	1.146798680601761	0.2635606401572764	0.5038912422025535	1.5867862690252872	0.24633171390078845	0.598180460128569	2.0103154901910143	0.21299044733402275	0.38916003617814215	2.036392735354953	0.2629143449631152	0.44754790783377246	2.053544804115232	0.2257910042166368	0.6869866556385692	2.073286261959714	0.10397409268024756	0.3491562473274024	1.1273032638340783	0.10147846772361988	0.41866724245660064	1.546708545022791	0.07550141644204186	0.6047546222330777	2.0232788513793745	0.05755368121407005	0.40627716304826084	2.0405794691875054	0.009486579741075932	0.4653139442428366	2.052530517093179	0.09177704012581082	0.6626912233322124	2.071872328338173	0.2833175247575515	0.3045303554060218	0.6027963525772461	0.3612096835939749	0.2297406550063632	0.3852683282327366	0.2918876977700448	0.2151884067406642	0.4991848575425478	0.37181839902143843	0.3820869421748312	0.7045057853568555	0.33373019875704224	0.21067008608561552	0.8960253391405854	0.3715395799732841	0.2394116038705243	0.7282214135917525	0.3900614542864631	0.29112179595829374	0.6342968969699441	0.42321962426961335	0.280147979732519	0.5999136213783304	0.4155774602461986	0.2788322814625156	0.6371190608977446	0.12279660580053502	0.315576922678915	0.6494325841282373	0.17791759224308948	0.14166602264401082	0.8426168180152931	0.3057451727217719	0.21883019544838725	0.7169548303741134	0.36129100354856625	0.20063969819923266	0.6617057902613054	0.3730619594382614	0.2161985881174816	0.6137396110489656	0.39303195645342226	0.21782193708645958	0.6388922967256452
221	3.683333333333333	0.2853157046233156	0.4036218843398409	1.1468906445936837	0.26269457385470346	0.5012851937238114	1.581865332467844	0.24649122490174422	0.5983470434010661	2.0101683302639977	0.2154476642867632	0.3988211433581761	2.0369953120273045	0.26699979900737986	0.4312452949568936	2.045327049678006	0.22603468746066574	0.6877969186318801	2.072542460787281	0.09897556338212768	0.36034481087600684	1.125882934804816	0.1014897380094045	0.41873829299478244	1.5468228575125862	0.07555360084137719	0.6048629691110048	2.0234239391853373	0.06132491410754027	0.3961489167428852	2.043193497023559	0.01457566343500068	0.45032887590591353	2.045570368259299	0.09247734399939554	0.6661561367151759	2.0769394855065078	0.2827532947502379	0.3026946191766168	0.5993967719534141	0.3578241196885256	0.24184639074700798	0.38446838242852077	0.28780188194316203	0.21419057857753787	0.4990348205192905	0.3709297595653242	0.38116315140216517	0.70050111675352	0.33621521275377	0.21683663167058706	0.8950384637727645	0.37098002416655096	0.2367139751359592	0.728926368347051	0.38942559702733637	0.26707355938186944	0.6372711958225	0.4223335223578637	0.28241844221437773	0.6091290438265878	0.4060133460563925	0.2711598498846499	0.6349271621029542	0.11852705437955363	0.31116139301648665	0.6463563659249614	0.1695952809268668	0.1649769218185681	0.8451352779213772	0.2982286729676971	0.24409862133900764	0.7182528012352736	0.36406373690482474	0.20632492856127854	0.6634638016544153	0.37354915524256654	0.2139208134963381	0.6180166737359633	0.3905251895756496	0.20192049536879628	0.6378700880577137
